<?xml version="1.0" standalone="no"?>
<!DOCTYPE svg PUBLIC "-//W3C//DTD SVG 20010904//EN"
 "http://www.w3.org/TR/2001/REC-SVG-20010904/DTD/svg10.dtd">
<svg version="1.0" xmlns="http://www.w3.org/2000/svg"
 width="450.000000pt" height="450.000000pt" viewBox="0 0 450.000000 450.000000"
 preserveAspectRatio="xMidYMid meet">
<metadata>
Created by potrace 1.11, written by Peter Selinger 2001-2013
</metadata>
<g transform="translate(0.000000,450.000000) scale(0.100000,-0.100000)"
fill="#000000" stroke="none">
<path d="M2085 3971 c-179 -52 -336 -194 -419 -379 l-19 -42 -61 0 c-142 -1
-296 -59 -399 -151 -31 -28 -83 -89 -115 -137 -75 -113 -103 -187 -138 -369
-4 -20 -10 -23 -55 -23 -129 0 -277 -67 -384 -175 -137 -138 -209 -308 -222
-522 -11 -181 38 -385 129 -536 67 -111 76 -120 298 -297 14 -11 41 -27 60
-37 19 -10 41 -24 48 -30 12 -12 22 -14 74 -18 9 0 20 -3 23 -7 3 -3 15 -3 27
-1 18 5 19 10 11 52 -4 25 -8 120 -8 211 0 148 3 172 24 235 40 119 90 206
173 306 22 26 44 63 49 84 6 20 13 34 16 31 3 -3 13 4 22 16 13 16 30 21 72
23 47 2 238 40 247 49 5 6 -29 129 -48 171 -10 22 -25 56 -33 75 -12 30 -52
89 -114 167 -19 24 -127 106 -153 116 -12 4 -11 6 3 6 34 2 92 -37 158 -105
103 -108 169 -234 199 -376 15 -77 34 -75 50 5 23 122 85 245 189 379 17 23
31 56 36 85 8 59 39 111 72 124 44 17 82 11 108 -17 l25 -27 87 18 c49 10 89
19 91 20 6 4 -27 144 -46 191 -21 56 -62 143 -75 159 -4 6 -22 31 -40 56 -30
44 -110 119 -126 119 -5 0 -18 9 -31 20 -26 22 -23 24 15 10 47 -18 18 5 -44
35 -70 33 -73 43 -37 120 24 53 75 119 84 110 3 -3 12 1 21 9 9 7 39 16 66 20
32 4 45 3 36 -3 -11 -7 -7 -12 19 -18 23 -6 40 -20 52 -41 19 -35 19 -38 -24
-132 -29 -63 -58 -144 -58 -165 0 -6 20 -35 45 -65 68 -83 135 -223 161 -337
12 -54 24 -91 26 -83 3 8 15 55 27 105 64 266 238 461 464 521 65 18 68 20 62
44 -9 39 -55 130 -66 130 -5 0 -9 7 -9 15 0 8 -23 38 -50 65 -28 28 -47 50
-43 50 5 0 -14 14 -42 30 -27 16 -45 30 -40 30 22 0 -58 36 -87 39 -5 1 -7 7
-5 13 1 8 -23 19 -63 30 -87 22 -236 22 -315 -1z m-732 -680 c4 -1 12 -1 17
-1 21 0 60 -53 60 -82 0 -16 -13 -68 -29 -116 -15 -48 -41 -127 -55 -176 -15
-49 -34 -95 -41 -103 -32 -31 -140 -6 -171 41 -14 22 -16 42 -11 119 8 142 59
266 120 295 15 7 27 17 27 22 0 12 41 18 60 9 8 -4 18 -7 23 -8z m-674 -701
c72 -20 76 -59 25 -232 -65 -224 -63 -221 -146 -220 -59 1 -85 23 -94 78 -19
131 30 292 108 353 41 32 58 35 107 21z"/>
<path d="M1450 2221 c-175 -40 -313 -157 -419 -356 -11 -22 -21 -47 -21 -55 0
-9 -4 -20 -9 -25 -5 -6 -11 -28 -14 -50 -23 -174 -27 -218 -21 -280 8 -89 29
-185 56 -255 67 -171 115 -242 258 -390 93 -96 126 -121 164 -127 11 -2 27
-10 37 -18 9 -9 23 -13 30 -10 21 8 24 -58 4 -75 -18 -15 -20 -41 -3 -58 20
-20 75 -15 92 10 14 20 14 24 0 45 -22 35 -9 59 44 80 85 32 148 72 215 136
37 35 67 62 67 59 0 -2 12 11 27 30 15 18 31 35 34 38 10 7 139 220 134 220
-2 0 5 21 16 48 108 247 82 561 -63 778 -141 210 -386 310 -628 255z m11 -424
c70 -47 75 -118 13 -186 -46 -52 -87 -71 -130 -61 -63 14 -97 79 -74 142 13
38 111 128 139 128 10 0 33 -10 52 -23z"/>
<path d="M3598 1263 c-10 -2 -18 -13 -18 -23 0 -10 -4 -22 -10 -25 -24 -15 -9
-35 24 -35 44 0 54 15 25 39 -20 16 -21 21 -10 35 7 9 12 15 10 15 -2 -1 -12
-3 -21 -6z"/>
<path d="M923 1220 c3 -10 -1 -24 -9 -31 -26 -21 -16 -39 20 -39 41 0 55 16
30 34 -11 8 -15 21 -11 35 4 16 1 21 -15 21 -15 0 -19 -5 -15 -20z"/>
<path d="M2249 1225 c-1 -5 -1 -14 0 -19 1 -5 -6 -17 -15 -27 -16 -18 -16 -19
3 -19 26 0 35 22 23 52 -5 13 -10 19 -11 13z"/>
<path d="M2270 1170 c0 -5 5 -10 11 -10 5 0 7 5 4 10 -3 6 -8 10 -11 10 -2 0
-4 -4 -4 -10z"/>
</g>
</svg>
